Coordinates
version=1
nRows=8
nColumns=36
inDegrees=yes

Units are S.I. units (second, meters, Newtons, ...)
If the header above contains a line with 'inDegrees', this indicates whether rotational values are in degrees (yes) or radians (no).

endheader
time	pelvis_tilt	pelvis_list	pelvis_rotation	pelvis_tx	pelvis_ty	pelvis_tz	hip_flexion_r	hip_adduction_r	hip_rotation_r	knee_angle_r	knee_angle_r_beta	ankle_angle_r	subtalar_angle_r	mtp_angle_r	hip_flexion_l	hip_adduction_l	hip_rotation_l	knee_angle_l	knee_angle_l_beta	ankle_angle_l	subtalar_angle_l	mtp_angle_l	lumbar_extension	lumbar_bending	lumbar_rotation	arm_flex_r	arm_add_r	arm_rot_r	elbow_flex_r	pro_sup_r	arm_flex_l	arm_add_l	arm_rot_l	elbow_flex_l	pro_sup_l
      0.00000000	      2.68146226	      1.99694745	     -3.19780659	     -0.31014134	      1.27728593	     -0.07726566	     -4.53663739	     -4.90954703	      7.92745636	      9.44925086	      0.16492054	      4.22496546	    -27.05041534	     -5.92064162	     -2.88582090	     -0.27572087	      8.13834969	     12.95120929	      0.22604124	     12.55774565	    -15.34081089	     -5.92064162	    -10.99496813	     -1.55328883	     -3.54901137	      7.14904626	     -5.19027794	     17.56578728	     24.30407951	     77.56125618	      6.60595513	     -5.31497539	     11.93560111	     26.19129234	     73.91594123
      0.01666670	      0.37404941	      1.57365968	     -3.20439191	     -0.30868466	      1.27344897	     -0.07745218	     -1.40039119	     -4.27201423	      8.65231207	     10.99889837	      0.19196699	      8.52265803	    -24.40490090	     -6.29544722	      0.06128221	     -0.32829837	      9.80056849	     13.35251951	      0.23304543	     12.49192329	    -15.50396444	     -6.29544722	     -8.08233026	     -0.39390654	     -4.28940926	      6.37432520	     -4.71346725	     13.75263654	     24.88758069	     79.53589461	      5.31203716	     -4.16808466	      5.59795368	     26.83908316	     74.56250385
      0.03333330	     -0.43157995	      1.89394514	     -3.28610768	     -0.30802226	      1.27101479	     -0.07636474	     -0.70222353	     -4.80772799	      8.43188265	     10.61941199	      0.18534370	      9.12132968	    -24.09140446	     -6.69474735	      0.66009761	     -0.20429739	     10.02270797	     13.07454939	      0.22819394	     12.51923817	    -15.55248884	     -6.69474735	     -7.02204231	     -0.82889269	     -4.00023120	      5.85609834	     -4.24631059	     10.83214600	     25.48970251	     83.73068733	      5.41487278	     -4.54849260	      6.49938994	     26.56640957	     76.90723979
      0.05000000	     -0.10305208	      2.12523986	     -3.28173774	     -0.30898733	      1.27175431	     -0.07582464	     -1.16369513	     -5.17957690	      8.39847448	     10.39799145	      0.18147919	      9.49376806	    -23.72071060	     -6.74074547	     -0.14078695	      0.03500601	     10.66386426	     12.40694929	      0.21654212	     12.10826729	    -16.07527779	     -6.74074547	     -7.39574235	     -1.19143077	     -3.84674373	      5.90277312	     -4.15801442	     11.10428727	     25.63760811	     83.26885124	      5.47335197	     -4.92024948	      6.99298652	     26.79371696	     76.45422532
      0.06666670	      0.01410526	      2.18853561	     -3.33227363	     -0.30869260	      1.27145672	     -0.07531801	     -1.44011692	     -5.25034196	      8.53281357	     10.08269699	      0.17597626	      9.31003595	    -24.03628637	     -6.77759200	     -0.74302197	      0.06289937	     11.23596743	     11.47222763	      0.20022814	     11.85161577	    -16.52514798	     -6.77759200	     -7.51565541	     -1.26240608	     -3.70007329	      5.91717234	     -4.21510990	     11.71270316	     25.88467323	     82.91814266	      5.56246110	     -5.09932783	      7.78867169	     26.72828310	     76.16782710
      0.08333330	      0.00798022	      2.33905927	     -3.33787254	     -0.30938212	      1.27184095	     -0.07490845	     -1.48747384	     -5.37649749	      8.45280613	      9.86828458	      0.17223406	      9.32225110	    -23.96356688	     -6.89528101	     -0.98183424	      0.19938686	     11.71161562	     10.92252333	      0.19063399	     11.44810755	    -17.33910841	     -6.89528101	     -7.48296051	     -1.45161465	     -3.25641125	      5.87527115	     -4.59215177	     13.96353582	     25.96119394	     82.40170293	      6.11154435	     -5.43637130	     10.48113422	     26.21018775	     75.97302760
      0.10000000	      0.06867803	      2.41630621	     -3.31620153	     -0.30897013	      1.27147551	     -0.07467199	     -1.67024646	     -5.45710106	      8.33285269	      9.58133020	      0.16722576	      9.33349475	    -23.87255751	     -6.92466043	     -1.20897593	      0.23183263	     11.94328814	     10.53703072	      0.18390588	     11.29229815	    -17.50607005	     -6.92466043	     -7.47811889	     -1.57658688	     -3.15901021	      5.89313976	     -4.57931327	     14.25798495	     25.91912534	     81.71935259	      6.34779657	     -5.41467324	     10.55220951	     26.02031269	     75.45490607
      0.11666670	     -0.11083408	      2.51753324	     -3.41843226	     -0.30964772	      1.27152784	     -0.07439237	     -1.46105827	     -5.51375855	      8.59622257	      9.46919334	      0.16526860	      8.92537172	    -24.53097354	     -7.02098233	     -1.07985598	      0.31444378	     12.17023513	     10.32902169	      0.18027544	     10.87272246	    -18.42525908	     -7.02098233	     -7.12261115	     -1.73205906	     -2.97108833	      5.95583073	     -4.76688412	     15.95035729	     25.68684566	     80.66789361	      6.59273757	     -5.47195241	     11.41839657	     25.55734967	     74.71142628
